#!OML:ASF F:\VICON\USERDATA\INSTALL\SteveWalk\SteveWalk.ASF
:FULLY-SPECIFIED
:DEGREES
139
root -0.577252 16.4668 -16.1943 17.0964 0.556162 1.178
lowerback -14.2308 0.132929 1.57761
upperback -5.42777 -0.092628 1.73066
thorax 2.25502 -0.0458964 0.901432
lowerneck -3.34061 0.50157 0.214312
upperneck 7.49153 0.945356 -3.75486
head 3.00224 0.345426 -1.21949
rclavicle -7.17488e-016 0
rhumerus -35.4639 -21.6467 -75.0406
rradius 20.5235
rwrist 10.1733
rhand -18.3193 -35.1614
rfingers 7.12502
rthumb 7.96218 -64.9914
lclavicle -7.17488e-016 0
lhumerus -38.6877 4.957 85.1888
lradius 33.0884
lwrist 4.95257
lhand -19.7542 -18.8402
lfingers 7.12502
lthumb 6.57711 11.0377
rfemur -30.6683 -3.23833 23.3929
rtibia 36.9801
rfoot -23.8335 3.59683
rtoes -9.10745
lfemur -41.6279 5.25463 -23.1141
ltibia 68.8826
lfoot -7.35859 0.447147
ltoes -4.81274
140
root -0.583203 16.4609 -15.9946 17.1346 0.388406 1.13894
lowerback -14.263 0.235445 1.48068
upperback -5.38928 0.0559615 1.66847
thorax 2.31213 0.0287092 0.914983
lowerneck -3.53295 0.480511 0.296155
upperneck 7.80109 0.92765 -3.80143
head 3.14538 0.331728 -1.25318
rclavicle 7.82093e-015 -2.38542e-015
rhumerus -33.6336 -18.994 -77.3492
rradius 22.0068
rwrist 7.59667
rhand -17.7645 -35.0795
rfingers 7.12502
rthumb 8.4976 -64.8886
lclavicle 7.82093e-015 -2.38542e-015
lhumerus -39.179 5.21831 85.0262
lradius 31.1426
lwrist 3.91439
lhand -19.8181 -19.9812
lfingers 7.12502
lthumb 6.51539 9.89862
rfemur -29.7757 -3.34112 23.453
rtibia 36.8159
rfoot -24.4666 3.60747
rtoes -9.14756
lfemur -42.7859 5.46506 -23.3358
ltibia 67.5622
lfoot -7.53445 1.01398
ltoes -2.74423
141
root -0.584528 16.4556 -15.7921 17.2433 0.208529 1.1823
lowerback -14.3535 0.317477 1.34458
upperback -5.39984 0.182788 1.59879
thorax 2.34884 0.0925453 0.939796
lowerneck -3.59692 0.473197 0.254925
upperneck 8.02502 0.926939 -3.77943
head 3.23386 0.327646 -1.24092
rclavicle 7.81783e-015 -6.36111e-015
rhumerus -31.9956 -16.106 -79.399
rradius 23.4873
rwrist 4.59575
rhand -17.5474 -34.4435
rfingers 7.12502
rthumb 8.70714 -64.2439
lclavicle 7.81783e-015 -6.36111e-015
lhumerus -39.6494 5.77572 84.6765
lradius 29.0553
lwrist 2.51717
lhand -19.6587 -20.875
lfingers 7.12502
lthumb 6.66934 8.99994
rfemur -28.9694 -3.64464 23.4319
rtibia 36.6024
rfoot -25.0911 3.91006
rtoes -8.84126
lfemur -43.9197 5.595 -23.657
ltibia 66.049
lfoot -8.15957 1.56734
ltoes -3.27815
142
root -0.580135 16.451 -15.585 17.3304 0.098676 1.31716
lowerback -14.6159 0.356219 1.27007
upperback -5.30459 0.239989 1.47755
thorax 2.58928 0.121255 0.866789
lowerneck -3.54827 0.474557 0.159809
upperneck 7.99159 0.927252 -3.70209
head 3.21131 0.32866 -1.19818
rclavicle 3.4733e-015 3.97569e-015
rhumerus -30.2809 -13.2142 -81.2744
rradius 25.0529
rwrist 1.76684
rhand -17.111 -34.8844
rfingers 7.12502
rthumb 9.12821 -64.6669
lclavicle 3.4733e-015 3.97569e-015
lhumerus -40.0837 6.55478 84.1666
lradius 27.0093
lwrist 0.863528
lhand -19.1635 -20.6514
lfingers 7.12502
lthumb 7.14737 9.20789
rfemur -28.0979 -4.26661 23.3272
rtibia 36.3508
rfoot -25.7909 4.53289
rtoes -8.03712
lfemur -44.8629 5.57171 -24.0621
ltibia 64.2913
lfoot -9.29973 2.15455
ltoes -6.61597
143
root -0.577265 16.4456 -15.3789 17.4026 -0.174716 1.51698
lowerback -14.7384 0.407032 1.07424
upperback -5.24508 0.335307 1.34062
thorax 2.71679 0.169103 0.851279
lowerneck -3.63514 0.475085 0.280368
upperneck 8.06939 0.938135 -3.88307
head 3.25822 0.329204 -1.27971
rclavicle -5.05658e-015 1.59028e-015
rhumerus -28.8682 -10.6246 -82.7395
rradius 26.7106
rwrist -0.615623
rhand -16.7071 -35.1904
rfingers 7.12502
rthumb 9.51797 -64.9555
lclavicle -5.05658e-015 1.59028e-015
lhumerus -40.6836 7.61052 83.4433
lradius 25.2002
lwrist -1.1144
lhand -18.1612 -19.0457
lfingers 7.12502
lthumb 8.11472 10.7785
rfemur -27.1943 -4.85951 23.1303
rtibia 36.0486
rfoot -26.5796 4.81707
rtoes -9.00303
lfemur -45.6846 5.63908 -24.5594
ltibia 62.3146
lfoot -9.60317 2.91297
ltoes -5.75586
